<?xml version="1.0" standalone="no"?>
<!DOCTYPE svg PUBLIC "-//W3C//DTD SVG 20010904//EN"
 "http://www.w3.org/TR/2001/REC-SVG-20010904/DTD/svg10.dtd">
<svg version="1.0" xmlns="http://www.w3.org/2000/svg"
 width="227.000000pt" height="222.000000pt" viewBox="0 0 227.000000 222.000000"
 preserveAspectRatio="xMidYMid meet">

<g transform="translate(0.000000,222.000000) scale(0.100000,-0.100000)"
fill="#000000" stroke="none">
<path d="M813 2203 c15 -2 37 -2 50 0 12 2 0 4 -28 4 -27 0 -38 -2 -22 -4z"/>
<path d="M983 2203 c15 -2 37 -2 50 0 12 2 0 4 -28 4 -27 0 -38 -2 -22 -4z"/>
<path d="M680 2180 c-72 -24 -53 -24 35 0 39 10 59 19 45 19 -14 0 -50 -8 -80
-19z"/>
<path d="M1110 2185 c30 -8 60 -14 65 -14 20 2 -71 27 -95 27 -14 0 0 -6 30
-13z"/>
<path d="M544 2131 c-155 -72 -321 -220 -398 -356 -17 -30 -17 -30 1 -5 84
113 111 145 160 190 74 68 159 124 246 165 40 19 68 34 62 34 -5 0 -38 -13
-71 -28z"/>
<path d="M1230 2150 c8 -5 20 -10 25 -10 6 0 3 5 -5 10 -8 5 -19 10 -25 10 -5
0 -3 -5 5 -10z"/>
<path d="M1271 2137 c2 -2 36 -20 74 -41 39 -20 61 -29 50 -20 -22 17 -110 64
-121 64 -4 0 -5 -1 -3 -3z"/>
<path d="M775 2081 c-16 -4 31 -5 105 -3 174 4 199 10 45 10 -66 0 -133 -3
-150 -7z"/>
<path d="M1115 2060 c39 -10 78 -21 88 -25 9 -4 17 -5 17 -1 0 8 -128 46 -154
45 -11 0 11 -8 49 -19z"/>
<path d="M621 2036 c-46 -19 -115 -56 -153 -81 -70 -49 -179 -158 -211 -214
-26 -45 -14 -38 18 11 42 63 113 136 180 183 75 53 124 78 217 109 40 14 64
26 53 26 -11 0 -58 -16 -104 -34z"/>
<path d="M1521 1973 c41 -39 95 -97 119 -130 57 -75 67 -86 44 -45 -25 44
-143 172 -197 213 -23 18 -8 1 34 -38z"/>
<path d="M1231 2027 c2 -2 36 -20 74 -41 39 -20 61 -29 50 -20 -22 17 -110 64
-121 64 -4 0 -5 -1 -3 -3z"/>
<path d="M1390 1939 c8 -9 47 -44 85 -79 54 -50 59 -53 25 -16 -25 26 -63 62
-85 79 -22 17 -33 24 -25 16z"/>
<path d="M1540 1786 c0 -2 8 -10 18 -17 15 -13 16 -12 3 4 -13 16 -21 21 -21
13z"/>
<path d="M1721 1718 c12 -24 33 -68 45 -98 13 -30 23 -49 24 -41 0 16 -76 181
-85 181 -3 0 4 -19 16 -42z"/>
<path d="M105 1709 c-9 -17 -15 -33 -13 -35 3 -2 12 12 21 31 21 43 13 47 -8
4z"/>
<path d="M1611 1678 c12 -24 33 -68 45 -98 13 -30 23 -49 24 -41 0 16 -76 181
-85 181 -3 0 4 -19 16 -42z"/>
<path d="M210 1659 c-12 -23 -20 -43 -18 -45 3 -2 14 17 26 41 27 56 20 60 -8
4z"/>
<path d="M60 1603 c-28 -75 -50 -177 -49 -228 1 -27 5 -15 11 35 5 41 22 113
38 160 32 98 33 120 0 33z"/>
<path d="M160 1534 c-11 -36 -20 -76 -19 -88 0 -11 8 11 19 49 10 39 21 78 25
88 4 9 5 17 1 17 -3 0 -14 -30 -26 -66z"/>
<path d="M1791 1550 c0 -8 4 -24 9 -35 5 -13 9 -14 9 -5 0 8 -4 24 -9 35 -5
13 -9 14 -9 5z"/>
<path d="M1681 1504 c0 -11 3 -14 6 -6 3 7 2 16 -1 19 -3 4 -6 -2 -5 -13z"/>
<path d="M1817 1430 c3 -36 7 -67 9 -69 7 -8 2 73 -6 104 -5 19 -6 6 -3 -35z"/>
<path d="M1697 1425 c3 -33 7 -62 9 -64 7 -8 2 74 -6 99 -5 16 -6 2 -3 -35z"/>
<path d="M133 1380 c0 -25 2 -35 4 -22 2 12 2 32 0 45 -2 12 -4 2 -4 -23z"/>
<path d="M1833 1295 c0 -33 2 -45 4 -27 2 18 2 45 0 60 -2 15 -4 0 -4 -33z"/>
<path d="M1713 1295 c0 -27 2 -38 4 -22 2 15 2 37 0 50 -2 12 -4 0 -4 -28z"/>
<path d="M133 1215 c0 -27 2 -38 4 -22 2 15 2 37 0 50 -2 12 -4 0 -4 -28z"/>
<path d="M13 1205 c0 -27 2 -38 4 -22 2 15 2 37 0 50 -2 12 -4 0 -4 -28z"/>
<path d="M1703 1200 c0 -25 2 -35 4 -22 2 12 2 32 0 45 -2 12 -4 2 -4 -23z"/>
<path d="M1816 1164 c-4 -31 -5 -59 -2 -61 2 -3 8 21 11 52 4 31 5 58 3 61 -3
2 -8 -21 -12 -52z"/>
<path d="M141 1144 c-1 -26 37 -154 45 -154 4 0 3 8 -1 18 -4 9 -15 49 -25 87
-11 39 -19 60 -19 49z"/>
<path d="M22 1130 c0 -14 2 -19 5 -12 2 6 2 18 0 25 -3 6 -5 1 -5 -13z"/>
<path d="M1682 1098 c-7 -28 -11 -53 -8 -55 2 -2 9 19 16 47 7 28 10 53 8 55
-3 3 -10 -18 -16 -47z"/>
<path d="M34 1075 c5 -34 46 -148 51 -143 2 2 -10 41 -27 88 -16 47 -27 71
-24 55z"/>
<path d="M1796 1064 c-4 -14 -5 -28 -3 -31 3 -2 8 8 11 23 4 14 5 28 3 31 -3
2 -8 -8 -11 -23z"/>
<path d="M1628 949 c-20 -43 -34 -79 -32 -79 7 0 77 150 73 155 -2 2 -21 -32
-41 -76z"/>
<path d="M1738 909 c-20 -43 -34 -79 -32 -79 7 0 77 150 73 155 -2 2 -21 -32
-41 -76z"/>
<path d="M190 976 c0 -13 68 -134 81 -141 5 -4 -3 15 -19 42 -16 26 -37 62
-45 78 -9 17 -16 26 -17 21z"/>
<path d="M90 914 c0 -6 7 -19 16 -30 14 -18 14 -18 3 6 -14 31 -19 36 -19 24z"/>
<path d="M1547 813 c-65 -88 -151 -160 -259 -219 -69 -37 -73 -47 -5 -13 64
33 157 102 208 156 49 51 105 123 96 123 -3 0 -21 -21 -40 -47z"/>
<path d="M147 809 c52 -90 211 -248 294 -292 33 -17 33 -17 9 0 -144 105 -212
171 -278 271 -38 57 -54 70 -25 21z"/>
<path d="M311 780 c81 -101 266 -225 364 -245 17 -3 -2 7 -41 23 -111 45 -192
99 -279 186 -45 45 -64 61 -44 36z"/>
<path d="M1675 794 c-9 -15 -12 -23 -6 -20 11 7 35 46 28 46 -3 0 -12 -12 -22
-26z"/>
<path d="M1883 538 c122 -110 243 -222 270 -247 26 -25 47 -42 47 -39 0 8
-526 488 -534 488 -3 0 94 -91 217 -202z"/>
<path d="M1439 549 l-24 -20 28 17 c15 9 27 18 27 20 0 8 -8 4 -31 -17z"/>
<path d="M1170 545 c-19 -7 -28 -14 -20 -14 8 0 29 6 45 14 39 17 21 18 -25 0z"/>
<path d="M1481 553 c1 -5 27 -30 58 -58 l56 -49 -55 57 c-55 58 -61 63 -59 50z"/>
<path d="M718 523 c7 -3 16 -2 19 1 4 3 -2 6 -13 5 -11 0 -14 -3 -6 -6z"/>
<path d="M1108 523 c7 -3 16 -2 19 1 4 3 -2 6 -13 5 -11 0 -14 -3 -6 -6z"/>
<path d="M1335 489 c-77 -43 -82 -53 -7 -15 43 23 94 56 82 55 -3 0 -36 -18
-75 -40z"/>
<path d="M763 513 c9 -2 23 -2 30 0 6 3 -1 5 -18 5 -16 0 -22 -2 -12 -5z"/>
<path d="M925 510 l-120 -6 115 -1 c63 0 129 3 145 7 35 9 40 9 -140 0z"/>
<path d="M480 495 c0 -7 61 -37 66 -33 2 3 -12 12 -31 21 -19 9 -35 15 -35 12z"/>
<path d="M580 446 c0 -6 122 -46 139 -46 9 1 -18 12 -59 25 -83 27 -80 27 -80
21z"/>
<path d="M1230 440 c-8 -5 -10 -10 -5 -10 6 0 17 5 25 10 8 5 11 10 5 10 -5 0
-17 -5 -25 -10z"/>
<path d="M1601 443 c1 -9 372 -347 440 -401 22 -17 48 -32 57 -32 9 1 2 7 -16
15 -18 8 -61 41 -95 73 -150 141 -387 353 -386 345z"/>
<path d="M1140 412 c-34 -12 -87 -16 -223 -16 -119 -1 -165 -4 -140 -9 69 -15
311 -2 378 21 33 11 53 20 45 20 -8 0 -35 -7 -60 -16z"/>
<path d="M2234 206 c12 -23 22 -39 24 -35 4 9 -24 66 -36 73 -5 3 1 -14 12
-38z"/>
<path d="M2251 104 c0 -11 3 -14 6 -6 3 7 2 16 -1 19 -3 4 -6 -2 -5 -13z"/>
<path d="M2215 48 c-23 -24 -25 -28 -7 -19 12 6 26 20 32 31 14 27 10 25 -25
-12z"/>
<path d="M2148 13 c6 -2 18 -2 25 0 6 3 1 5 -13 5 -14 0 -19 -2 -12 -5z"/>
</g>
</svg>
